<svg width="18" height="19" viewBox="0 0 18 19" fill="none" xmlns="http://www.w3.org/2000/svg">
<path d="M14.3818 11.6818C14.285 11.9012 14.2561 12.1445 14.2989 12.3804C14.3417 12.6164 14.4542 12.8341 14.6218 13.0055L14.6655 13.0491C14.8007 13.1842 14.908 13.3446 14.9812 13.5212C15.0544 13.6978 15.0921 13.887 15.0921 14.0782C15.0921 14.2693 15.0544 14.4586 14.9812 14.6352C14.908 14.8118 14.8007 14.9722 14.6655 15.1073C14.5304 15.2425 14.3699 15.3498 14.1934 15.423C14.0168 15.4962 13.8275 15.5339 13.6364 15.5339C13.4452 15.5339 13.2559 15.4962 13.0794 15.423C12.9028 15.3498 12.7424 15.2425 12.6073 15.1073L12.5636 15.0636C12.3922 14.896 12.1745 14.7835 11.9386 14.7407C11.7027 14.6979 11.4594 14.7268 11.24 14.8236C11.0249 14.9158 10.8414 15.0689 10.7122 15.264C10.583 15.4591 10.5137 15.6878 10.5127 15.9218V16.0455C10.5127 16.4312 10.3595 16.8012 10.0867 17.074C9.81392 17.3468 9.44395 17.5 9.05818 17.5C8.67241 17.5 8.30244 17.3468 8.02966 17.074C7.75688 16.8012 7.60364 16.4312 7.60364 16.0455V15.98C7.59801 15.7393 7.52009 15.5058 7.38001 15.31C7.23993 15.1141 7.04417 14.9649 6.81818 14.8818C6.59882 14.785 6.3555 14.7561 6.11957 14.7989C5.88365 14.8417 5.66595 14.9542 5.49455 15.1218L5.45091 15.1655C5.31582 15.3007 5.1554 15.408 4.97882 15.4812C4.80224 15.5544 4.61297 15.5921 4.42182 15.5921C4.23067 15.5921 4.04139 15.5544 3.86481 15.4812C3.68824 15.408 3.52782 15.3007 3.39273 15.1655C3.25749 15.0304 3.1502 14.8699 3.077 14.6934C3.00381 14.5168 2.96613 14.3275 2.96613 14.1364C2.96613 13.9452 3.00381 13.7559 3.077 13.5794C3.1502 13.4028 3.25749 13.2424 3.39273 13.1073L3.43636 13.0636C3.60403 12.8922 3.7165 12.6745 3.75928 12.4386C3.80205 12.2027 3.77317 11.9594 3.67636 11.74C3.58417 11.5249 3.43109 11.3414 3.23597 11.2122C3.04085 11.083 2.81221 11.0137 2.57818 11.0127H2.45455C2.06878 11.0127 1.69881 10.8595 1.42603 10.5867C1.15325 10.3139 1 9.94395 1 9.55818C1 9.17241 1.15325 8.80244 1.42603 8.52966C1.69881 8.25688 2.06878 8.10364 2.45455 8.10364H2.52C2.76072 8.09801 2.99419 8.02009 3.19004 7.88001C3.38589 7.73993 3.53507 7.54417 3.61818 7.31818C3.71499 7.09882 3.74387 6.8555 3.70109 6.61957C3.65832 6.38365 3.54585 6.16595 3.37818 5.99455L3.33455 5.95091C3.19931 5.81582 3.09202 5.6554 3.01882 5.47882C2.94562 5.30224 2.90795 5.11297 2.90795 4.92182C2.90795 4.73067 2.94562 4.54139 3.01882 4.36481C3.09202 4.18824 3.19931 4.02782 3.33455 3.89273C3.46963 3.75749 3.63005 3.6502 3.80663 3.577C3.98321 3.50381 4.17249 3.46613 4.36364 3.46613C4.55479 3.46613 4.74406 3.50381 4.92064 3.577C5.09722 3.6502 5.25764 3.75749 5.39273 3.89273L5.43636 3.93636C5.60777 4.10403 5.82547 4.2165 6.06139 4.25928C6.29731 4.30205 6.54064 4.27317 6.76 4.17636H6.81818C7.03329 4.08417 7.21674 3.93109 7.34596 3.73597C7.47518 3.54085 7.54452 3.31221 7.54545 3.07818V2.95455C7.54545 2.56878 7.6987 2.19881 7.97148 1.92603C8.24426 1.65325 8.61423 1.5 9 1.5C9.38577 1.5 9.75574 1.65325 10.0285 1.92603C10.3013 2.19881 10.4545 2.56878 10.4545 2.95455V3.02C10.4555 3.25403 10.5248 3.48267 10.654 3.67779C10.7833 3.87291 10.9667 4.02599 11.1818 4.11818C11.4012 4.21499 11.6445 4.24387 11.8804 4.20109C12.1164 4.15832 12.3341 4.04585 12.5055 3.87818L12.5491 3.83455C12.6842 3.69931 12.8446 3.59202 13.0212 3.51882C13.1978 3.44562 13.387 3.40795 13.5782 3.40795C13.7693 3.40795 13.9586 3.44562 14.1352 3.51882C14.3118 3.59202 14.4722 3.69931 14.6073 3.83455C14.7425 3.96963 14.8498 4.13005 14.923 4.30663C14.9962 4.48321 15.0339 4.67249 15.0339 4.86364C15.0339 5.05479 14.9962 5.24406 14.923 5.42064C14.8498 5.59722 14.7425 5.75764 14.6073 5.89273L14.5636 5.93636C14.396 6.10777 14.2835 6.32547 14.2407 6.56139C14.1979 6.79731 14.2268 7.04064 14.3236 7.26V7.31818C14.4158 7.53329 14.5689 7.71674 14.764 7.84596C14.9591 7.97518 15.1878 8.04452 15.4218 8.04545H15.5455C15.9312 8.04545 16.3012 8.1987 16.574 8.47148C16.8468 8.74426 17 9.11423 17 9.5C17 9.88577 16.8468 10.2557 16.574 10.5285C16.3012 10.8013 15.9312 10.9545 15.5455 10.9545H15.48C15.246 10.9555 15.0173 11.0248 14.8222 11.154C14.6271 11.2833 14.474 11.4667 14.3818 11.6818V11.6818Z" stroke="white" stroke-width="2" stroke-linecap="round" stroke-linejoin="round"/>
</svg>
