<svg width="200" height="45" viewBox="0 0 200 45" fill="none" xmlns="http://www.w3.org/2000/svg">
<path d="M20.958 39.7727C21.2301 39.0722 21.3598 38.3245 21.3396 37.5733C21.3811 35.4913 21.9375 33.4521 22.9592 31.6376C23.9783 29.8262 25.4317 28.2964 27.1885 27.1859C27.8391 26.8369 28.412 26.3596 28.8728 25.7829C29.3335 25.2062 29.6725 24.5419 29.8691 23.8304C30.0657 23.1189 30.116 22.3749 30.0168 21.6434C29.9176 20.9119 29.671 20.2081 29.292 19.5747C28.7857 18.7285 28.0571 18.0348 27.1885 17.5733C26.6906 17.2278 26.2123 16.8558 25.7564 16.4572L24.6137 15.3383C22.5199 13.1372 21.3458 10.2195 21.3312 7.18166C21.3528 6.43028 21.2238 5.68218 20.9516 4.98149C20.6794 4.2808 20.2697 3.64172 19.7466 3.10193C19.2258 2.56276 18.6017 2.13403 17.9116 1.84135C17.2214 1.54867 16.4794 1.39804 15.7298 1.39844C14.9806 1.39949 14.2392 1.5508 13.5495 1.8434C12.8598 2.136 12.2358 2.56395 11.7144 3.10193C11.1922 3.64267 10.7831 4.28212 10.511 4.98287C10.2389 5.68363 10.1093 6.43161 10.1298 7.18305C10.142 8.15849 10.4107 9.11354 10.9088 9.95228C11.4052 10.7896 12.114 11.481 12.9634 11.9565C16.4025 14.1327 18.7955 18.2935 18.7955 22.3859C18.787 25.3973 17.6353 28.2932 15.5732 30.4879L12.9718 32.7984C12.1228 33.2726 11.4137 33.9635 10.9158 34.8026C10.4165 35.6404 10.1494 36.597 10.1368 37.5733C10.1154 38.3246 10.2446 39.0726 10.5167 39.7733C10.7889 40.474 11.1985 41.1131 11.7214 41.653C12.2423 42.192 12.8664 42.6207 13.5565 42.9133C14.2466 43.206 14.9886 43.3567 15.7382 43.3565C16.4876 43.3556 17.2293 43.2044 17.9192 42.9118C18.6092 42.6192 19.2334 42.1911 19.755 41.653C20.2769 41.1124 20.6859 40.4731 20.958 39.7727Z" fill="#8DA2FB"/>
<path d="M28.555 10.2935C27.9382 9.36767 27.6095 8.27816 27.6095 7.16487C27.6105 5.67358 28.2012 4.2432 29.2529 3.18585C30.1673 2.26591 31.3733 1.69285 32.6641 1.565C33.9549 1.43714 35.2499 1.76247 36.327 2.48515C37.2496 3.1046 37.968 3.98356 38.3913 5.01103C38.8147 6.03966 38.9253 7.17036 38.7091 8.26152C38.4929 9.35268 37.9596 10.3558 37.1759 11.1453C36.3947 11.9326 35.3966 12.4692 34.3089 12.6867C33.2213 12.9042 32.0936 12.7926 31.0697 12.3663C30.0448 11.9395 29.1696 11.2181 28.555 10.2935Z" fill="#8DA2FB"/>
<path d="M30.1004 32.8921C31.0221 32.274 32.106 31.9439 33.2137 31.9439V31.9411C33.95 31.942 34.679 32.0882 35.3587 32.3714C36.0383 32.6546 36.6554 33.0692 37.1746 33.5914C38.0919 34.5144 38.6626 35.7257 38.79 37.0208C38.9174 38.3158 38.5938 39.6151 37.8739 40.6991C37.2593 41.625 36.3836 42.3474 35.3578 42.7747C34.3338 43.201 33.2061 43.3126 32.1185 43.0951C31.0309 42.8776 30.0327 42.341 29.2515 41.5537C28.4676 40.7641 27.9341 39.7607 27.7179 38.6693C27.5017 37.5778 27.6124 36.4468 28.0361 35.418C28.4595 34.3906 29.1779 33.5117 30.1004 32.8921Z" fill="#8DA2FB"/>
<path d="M46.6081 19.2418C47.2233 20.1673 47.5519 21.255 47.5522 22.3679C47.5512 23.8595 46.9605 25.2903 45.9088 26.3481C45.3896 26.8701 44.7724 27.2846 44.0928 27.5678C43.4131 27.851 42.6843 27.9973 41.948 27.9984C40.8391 27.9985 39.7553 27.6683 38.8347 27.0502C37.9121 26.4307 37.1937 25.5518 36.7704 24.5243C36.3466 23.4955 36.236 22.3645 36.4522 21.2731C36.6684 20.1816 37.2018 19.1783 37.9857 18.3886C38.7671 17.6011 39.7655 17.0642 40.8534 16.8468C41.9413 16.6293 43.0693 16.741 44.0934 17.1677C45.1185 17.5948 45.9937 18.3167 46.6081 19.2418Z" fill="#8DA2FB"/>
<path d="M3.88929 17.6879C4.81097 17.0698 5.89349 16.7397 7.00258 16.7397C7.73873 16.7413 8.46734 16.8879 9.14675 17.1714C9.82615 17.4548 10.443 17.8694 10.962 18.3914C11.879 19.314 12.4493 20.5249 12.5767 21.8194C12.7041 23.1139 12.3808 24.4127 11.6613 25.4963C11.0469 26.4214 10.1717 27.1432 9.14663 27.5705C8.12235 27.9947 6.99512 28.1052 5.90796 27.8878C4.8208 27.6704 3.82271 27.135 3.04034 26.3495C2.25671 25.56 1.7234 24.5569 1.50721 23.4657C1.29102 22.3745 1.40155 21.2439 1.82496 20.2152C2.24816 19.1873 2.96652 18.3078 3.88929 17.6879Z" fill="#8DA2FB"/>
<path d="M82.0477 15.5748L79.1945 25.9133L76.14 15.5748H72.0449L68.9903 25.8797L66.1372 15.5748H61.5386L66.8756 32.358H71.0043L74.0924 22.1874L77.1805 32.358H81.3092L86.6463 15.5748H82.0477ZM96.3134 32.828C101.248 32.828 105.209 28.9678 105.209 23.9664C105.209 18.965 101.248 15.1049 96.3134 15.1049C91.3791 15.1049 87.4519 18.965 87.4519 23.9664C87.4519 28.9678 91.3791 32.828 96.3134 32.828ZM96.3134 28.5986C93.7623 28.5986 91.7819 26.6853 91.7819 23.9664C91.7819 21.2475 93.7623 19.3343 96.3134 19.3343C98.898 19.3343 100.878 21.2475 100.878 23.9664C100.878 26.6853 98.898 28.5986 96.3134 28.5986ZM112.585 18.4615V15.5748H108.255V32.358H112.585V24.3357C112.585 20.8112 115.438 19.8042 117.687 20.0727V15.2392C115.572 15.2392 113.457 16.179 112.585 18.4615ZM135.692 32.358L128.746 23.8657L135.492 15.5748H130.322L124.548 22.9594V8.86153H120.218V32.358H124.548V24.7385L130.657 32.358H135.692ZM146.884 8.3916C141.547 8.3916 138.996 10.7748 138.996 15.407V15.5748H136.579V19.7371H138.996V32.358H143.326V19.7371H146.112V15.5748H143.326V15.407C143.326 13.1245 144.635 12.1846 146.884 12.1846C147.32 12.1846 147.79 12.1846 148.26 12.2182V32.358H152.59V9.0965C150.744 8.72727 148.999 8.3916 146.884 8.3916ZM164.527 32.828C169.462 32.828 173.422 28.9678 173.422 23.9664C173.422 18.965 169.462 15.1049 164.527 15.1049C159.593 15.1049 155.666 18.965 155.666 23.9664C155.666 28.9678 159.593 32.828 164.527 32.828ZM164.527 28.5986C161.976 28.5986 159.996 26.6853 159.996 23.9664C159.996 21.2475 161.976 19.3343 164.527 19.3343C167.112 19.3343 169.092 21.2475 169.092 23.9664C169.092 26.6853 167.112 28.5986 164.527 28.5986ZM194.712 15.5748L191.859 25.9133L188.804 15.5748H184.709L181.655 25.8797L178.802 15.5748H174.203L179.54 32.358H183.669L186.757 22.1874L189.845 32.358H193.974L199.311 15.5748H194.712Z" fill="#4338CA"/>
</svg>
